Coordinates
version=1
nRows=54
nColumns=12
inDegrees=yes

Units are S.I. units (second, meters, Newtons, ...)
Angles are in degrees

endheader
time	SC_y	SC_z	SC_x	AC_y	AC_z	AC_x	GH_y	GH_z	GH_yy	EL_x	PS_y
       0.0              -58.41          35.36          7.562          63.66         -11.34          1.941         -132.7          -7.65          42.23          112.4          63.45
   0.04664               -58.4          35.36          7.564          63.65         -11.34          1.938         -132.7         -7.636          42.24          112.4          63.45
   0.09328               -58.4          35.36          7.567          63.65         -11.34          1.936         -132.7         -7.621          42.26          112.4          63.46
    0.1399              -58.39          35.35           7.57          63.65         -11.34          1.933         -132.7         -7.605          42.27          112.4          63.46
    0.1866              -58.38          35.35          7.572          63.64         -11.34          1.929         -132.7         -7.588          42.29          112.3          63.46
    0.2332              -58.38          35.34          7.576          63.64         -11.34          1.926         -132.7          -7.57          42.31          112.3          63.47
    0.2798              -58.37          35.34          7.579          63.63         -11.33          1.923         -132.7         -7.551          42.33          112.3          63.47
    0.3265              -58.36          35.34          7.583          63.63         -11.33          1.919         -132.7          -7.53          42.35          112.3          63.48
    0.3731              -58.35          35.33          7.586          63.62         -11.33          1.915         -132.7         -7.508          42.37          112.3          63.48
    0.4198              -58.34          35.33           7.59          63.61         -11.33           1.91         -132.8         -7.485          42.39          112.2          63.49
    0.4664              -58.33          35.32          7.595          63.61         -11.33          1.905         -132.8          -7.46          42.42          112.2          63.49
     0.513              -58.32          35.31            7.6           63.6         -11.32            1.9         -132.8         -7.432          42.45          112.2           63.5
    0.5597              -58.31          35.31          7.605          63.59         -11.32          1.895         -132.8         -7.403          42.47          112.1           63.5
    0.6063               -58.3           35.3           7.61          63.58         -11.32          1.889         -132.8         -7.371          42.51          112.1          63.51
     0.653              -58.28          35.29          7.616          63.58         -11.32          1.882         -132.8         -7.337          42.54          112.1          63.52
    0.6996              -58.27          35.28          7.623          63.57         -11.31          1.875         -132.8           -7.3          42.58          112.0          63.53
    0.7462              -58.25          35.28           7.63          63.55         -11.31          1.868         -132.8         -7.259          42.62          112.0          63.53
    0.7929              -58.23          35.27          7.638          63.54         -11.31          1.859         -132.8         -7.215          42.66          111.9          63.54
    0.8395              -58.22          35.26          7.646          63.53          -11.3           1.85         -132.8         -7.167          42.71          111.9          63.55
    0.8862              -58.19          35.24          7.655          63.52          -11.3           1.84         -132.9         -7.114          42.76          111.8          63.57
    0.9328              -58.17          35.23          7.665           63.5          -11.3           1.83         -132.9         -7.056          42.82          111.8          63.58
    0.9794              -58.15          35.22          7.676          63.48         -11.29          1.818         -132.9         -6.993          42.89          111.7          63.59
     1.026              -58.12           35.2          7.689          63.47         -11.29          1.804         -132.9         -6.922          42.96          111.6          63.61
     1.073              -58.09          35.18          7.702          63.45         -11.28           1.79         -132.9         -6.845          43.04          111.5          63.62
     1.119              -58.05          35.16          7.717          63.42         -11.27          1.773         -133.0         -6.758          43.12          111.4          63.64
     1.166              -58.01          35.14          7.734           63.4         -11.27          1.755         -133.0         -6.661          43.22          111.3          63.66
     1.213              -57.97          35.12          7.753          63.37         -11.26          1.735         -133.0         -6.553          43.33          111.2          63.68
     1.259              -57.92          35.09          7.774          63.34         -11.25          1.712         -133.1         -6.431          43.45          111.1          63.71
     1.306              -57.86          35.06          7.798           63.3         -11.24          1.686         -133.1         -6.294          43.59          110.9          63.74
     1.353               -57.8          35.03          7.826          63.26         -11.23          1.657         -133.2         -6.137          43.74          110.7          63.77
     1.399              -57.73          34.99          7.857          63.21         -11.21          1.623         -133.2         -5.959          43.92          110.5          63.81
     1.446              -57.65          34.94          7.892          63.16          -11.2          1.585         -133.3         -5.754          44.13          110.3          63.85
     1.492              -57.55          34.89          7.934           63.1         -11.18           1.54         -133.3         -5.518          44.37          110.1          63.91
     1.539              -57.44          34.83          7.981          63.02         -11.16          1.489         -133.4         -5.243          44.64          109.8          63.96
     1.586              -57.31          34.76          8.038          62.94         -11.14          1.428         -133.5         -4.922          44.96          109.4          64.03
     1.632              -57.16          34.67          8.104          62.84         -11.11          1.357         -133.6         -4.543          45.34          109.0          64.11
     1.679              -56.98          34.57          8.182          62.72         -11.07          1.272         -133.8         -4.093           45.8          108.5          64.21
     1.726              -56.76          34.45          8.276          62.58         -11.03          1.171         -133.9         -3.554          46.34          107.9          64.32
     1.772               -56.5          34.31           8.39           62.4         -10.98          1.048         -134.1         -2.901          46.99          107.2          64.46
     1.819              -56.18          34.13          8.529          62.19         -10.92         0.8981         -134.3         -2.103          47.79          106.3          64.63
     1.866              -55.79          33.91          8.701          61.93         -10.85         0.7131         -134.6         -1.119          48.78          105.2          64.84
     1.912              -55.29          33.64          8.915          61.61         -10.76         0.4823         -135.0         0.1079          50.01          103.8           65.1
     1.959              -54.67           33.3          9.185           61.2         -10.64         0.1916         -135.5          1.654          51.57          102.1          65.43
     2.006              -53.88          32.86          9.527          60.68         -10.49         -0.178         -136.0          3.619          53.54          99.97          65.85
     2.052              -52.87           32.3          9.966          60.02          -10.3         -0.651         -136.8          6.135          56.06          97.19          66.39
     2.099              -51.58          31.59          10.53          59.17         -10.06         -1.258         -137.7          9.363           59.3          93.63          67.07
     2.145              -49.92          30.67          11.25          58.08         -9.745         -2.033         -139.0          13.49          63.44          89.08          67.95
     2.192              -47.84          29.52          12.15          56.71         -9.353         -3.008         -140.5          18.67          68.64          83.35          69.06
     2.239               -45.3          28.12          13.26          55.04         -8.876         -4.196         -142.4          24.99          74.99          76.38           70.4
     2.285              -42.36          26.49          14.53          53.11         -8.323         -5.574         -144.5          32.31          82.34           68.3          71.96
     2.332              -39.17          24.73          15.92          51.02         -7.724         -7.065         -146.9          40.24           90.3          59.54          73.65
     2.379              -35.99          22.97           17.3          48.93         -7.125         -8.556         -149.2          48.17          98.26          50.79          75.34
     2.425              -33.05          21.34          18.58          46.99         -6.571         -9.933         -151.4           55.5          105.6           42.7           76.9
     2.472              -30.51          19.94          19.68          45.33         -6.094         -11.12         -153.3          61.81          111.9          35.73          78.25
